<svg width="41" height="102" xmlns="http://www.w3.org/2000/svg">
 <!-- Created with Method Draw - http://github.com/duopixel/Method-Draw/ -->
 <g>
  <title>background</title>
  <rect fill="none" id="canvas_background" height="104" width="43" y="-1" x="-1"/>
  <g display="none" overflow="visible" y="0" x="0" height="100%" width="100%" id="canvasGrid">
   <rect fill="url(#gridpattern)" stroke-width="0" y="0" x="0" height="100%" width="100%"/>
  </g>
 </g>
 <g>
  <title>Layer 1</title>
  <path id="svg_1" d="m12.646647,8.17894c0,-4.515653 3.4999,-8.173335 7.820752,-8.173335c4.320858,0 7.820746,3.657683 7.820746,8.173335c0,4.515653 -3.499887,8.173335 -7.820746,8.173335c-4.320858,0 -7.820752,-3.657683 -7.820752,-8.173335zm26.294703,23.135758l0,-4.127769c0,-4.343019 -3.366957,-7.864285 -7.525033,-7.864285l-21.922064,0c-4.155668,0 -7.52503,3.521266 -7.52503,7.864285l0,4.127769c-0.007267,0.093693 -0.012119,0.189929 -0.012119,0.287423l0,23.775193c0,1.847367 1.432079,3.343995 3.199751,3.343995c1.765253,0 3.200953,-1.496635 3.200953,-3.343995l0,-23.423188l2.14568,0l0,26.769713l0.015749,0l0,37.824799c0,2.458927 1.910646,4.456968 4.265924,4.456968c2.356493,0 4.265924,-1.995507 4.265924,-4.456968l0,-37.824799l2.814468,0l0,37.824799c0,2.458927 1.911829,4.456968 4.265917,4.456968c2.356483,0 4.265914,-1.995507 4.265914,-4.456968l0,-37.824799l0.013328,0l0,-26.769713l2.145683,0l0,23.421914c0,1.84737 1.435697,3.345265 3.200956,3.345265c1.767694,0 3.199751,-1.497895 3.199751,-3.345265l0,-23.775186c-0.001202,-0.09876 -0.008482,-0.192463 -0.015752,-0.286159l0,0.000003z" stroke-width="1.5" stroke="#000" fill="#000000"/>
 </g>
</svg>