<svg width="239" height="157" xmlns="http://www.w3.org/2000/svg">
 <!-- Created with Method Draw - http://github.com/duopixel/Method-Draw/ -->
 <g>
  <title>background</title>
  <rect fill="none" id="canvas_background" height="159" width="241" y="-1" x="-1"/>
  <g display="none" overflow="visible" y="0" x="0" height="100%" width="100%" id="canvasGrid">
   <rect fill="url(#gridpattern)" stroke-width="0" y="0" x="0" height="100%" width="100%"/>
  </g>
 </g>
 <g>
  <title>Layer 1</title>
  <path id="svg_4" d="m0.92011,137.994167c14.348228,-0.072935 28.696448,-0.145883 43.044676,-0.218812c0.09447,-11.536531 0.188924,-23.073062 0.283386,-34.609581c14.27968,0 28.559368,0 42.839056,0c0,-11.60731 0,-23.21462 0,-34.821924c14.645362,0 29.290709,0 43.936071,0c0,-11.324201 0,-22.648402 0,-33.972603c14.464541,0 28.929082,0 43.393639,0c0,-11.324195 0,-22.648402 0,-33.972603c21.516018,0 43.032036,0 64.548054,0c0,5.6621 0,11.324201 0,16.986301c-14.283768,0 -28.567479,0 -42.851247,0c0,11.465752 0,22.931505 0,34.397263c-14.464533,0 -28.929074,0 -43.393639,0c0,11.465759 0,22.931511 0,34.397263c-14.464557,0 -28.929082,0 -43.393639,0c0,11.465752 0,22.931511 0,34.397245c-14.645362,0 -29.290717,0 -43.936063,0c0,11.607316 0,23.21462 0,34.821918c-21.696831,0 -43.393647,0 -65.09047,0c0.967251,-5.626705 -1.648939,-11.97144 0.620175,-17.404461l0,-0.000006z" stroke-opacity="null" stroke-width="1.5" stroke="#000" fill="#000000"/>
 </g>
</svg>